solid OpenSCAD_Model
  facet normal -1 0 0
    outer loop
      vertex 0 0 0
      vertex 0 0 4.8
      vertex 0 5 0
    endloop
  endfacet
  facet normal -1 0 0
    outer loop
      vertex 0 5 0
      vertex 0 0 4.8
      vertex 0 5 4.8
    endloop
  endfacet
  facet normal 0 -1 0
    outer loop
      vertex 0.9 0 2
      vertex 0 0 0
      vertex 8 0 0
    endloop
  endfacet
  facet normal 0 -1 0
    outer loop
      vertex 0.9 0 3.65
      vertex 2 0 3.65
      vertex 0 0 4.8
    endloop
  endfacet
  facet normal 0 -1 0
    outer loop
      vertex 8 0 4.8
      vertex 7.15 0 3.65
      vertex 8 0 0
    endloop
  endfacet
  facet normal 0 -1 0
    outer loop
      vertex 8 0 4.8
      vertex 6 0 4.8
      vertex 7.15 0 3.65
    endloop
  endfacet
  facet normal 0 -1 0
    outer loop
      vertex 0 0 4.8
      vertex 0 0 0
      vertex 0.9 0 2
    endloop
  endfacet
  facet normal 0 -1 0
    outer loop
      vertex 2 0 3.65
      vertex 2 0 4.8
      vertex 0 0 4.8
    endloop
  endfacet
  facet normal 0 -1 0
    outer loop
      vertex 0 0 4.8
      vertex 0.9 0 2
      vertex 0.9 0 3.65
    endloop
  endfacet
  facet normal 0 -1 0
    outer loop
      vertex 7.15 0 3.65
      vertex 7.15 0 2
      vertex 8 0 0
    endloop
  endfacet
  facet normal 0 -1 0
    outer loop
      vertex 6 0 3.65
      vertex 7.15 0 3.65
      vertex 6 0 4.8
    endloop
  endfacet
  facet normal 0 -1 0
    outer loop
      vertex 7.15 0 2
      vertex 0.9 0 2
      vertex 8 0 0
    endloop
  endfacet
  facet normal 0 0 -1
    outer loop
      vertex 0 0 0
      vertex 0 5 0
      vertex 8 0 0
    endloop
  endfacet
  facet normal 0 0 -1
    outer loop
      vertex 8 0 0
      vertex 0 5 0
      vertex 8 5 0
    endloop
  endfacet
  facet normal 0 1 0
    outer loop
      vertex 7.15 5 2
      vertex 8 5 0
      vertex 0.9 5 2
    endloop
  endfacet
  facet normal 0 1 0
    outer loop
      vertex 2 5 3.65
      vertex 0 5 4.8
      vertex 2 5 4.8
    endloop
  endfacet
  facet normal 0 1 0
    outer loop
      vertex 0 5 0
      vertex 0 5 4.8
      vertex 0.9 5 3.65
    endloop
  endfacet
  facet normal 0 1 0
    outer loop
      vertex 0 5 0
      vertex 0.9 5 3.65
      vertex 0.9 5 2
    endloop
  endfacet
  facet normal 0 1 0
    outer loop
      vertex 0 5 0
      vertex 0.9 5 2
      vertex 8 5 0
    endloop
  endfacet
  facet normal 0 1 0
    outer loop
      vertex 6 5 4.8
      vertex 7.15 5 3.65
      vertex 6 5 3.65
    endloop
  endfacet
  facet normal 0 1 0
    outer loop
      vertex 8 5 0
      vertex 7.15 5 2
      vertex 7.15 5 3.65
    endloop
  endfacet
  facet normal 0 1 0
    outer loop
      vertex 7.15 5 3.65
      vertex 6 5 4.8
      vertex 8 5 4.8
    endloop
  endfacet
  facet normal 0 1 0
    outer loop
      vertex 7.15 5 3.65
      vertex 8 5 4.8
      vertex 8 5 0
    endloop
  endfacet
  facet normal 0 1 0
    outer loop
      vertex 0.9 5 3.65
      vertex 0 5 4.8
      vertex 2 5 3.65
    endloop
  endfacet
  facet normal 0 0 1
    outer loop
      vertex 0 5 4.8
      vertex 0 0 4.8
      vertex 2 0 4.8
    endloop
  endfacet
  facet normal 0 0 1
    outer loop
      vertex 2 5 4.8
      vertex 0 5 4.8
      vertex 2 0 4.8
    endloop
  endfacet
  facet normal 1 0 0
    outer loop
      vertex 2 0 4.8
      vertex 2 0 3.65
      vertex 2 5 3.65
    endloop
  endfacet
  facet normal 1 0 0
    outer loop
      vertex 2 5 4.8
      vertex 2 0 4.8
      vertex 2 5 3.65
    endloop
  endfacet
  facet normal 0 0 -1
    outer loop
      vertex 2 5 3.65
      vertex 2 0 3.65
      vertex 0.9 5 3.65
    endloop
  endfacet
  facet normal 0 0 -1
    outer loop
      vertex 0.9 5 3.65
      vertex 2 0 3.65
      vertex 0.9 0 3.65
    endloop
  endfacet
  facet normal 1 0 0
    outer loop
      vertex 0.9 5 2
      vertex 0.9 5 3.65
      vertex 0.9 0 3.65
    endloop
  endfacet
  facet normal 1 0 0
    outer loop
      vertex 0.9 0 2
      vertex 0.9 5 2
      vertex 0.9 0 3.65
    endloop
  endfacet
  facet normal 0 0 1
    outer loop
      vertex 7.15 0 2
      vertex 7.15 5 2
      vertex 0.9 5 2
    endloop
  endfacet
  facet normal 0 0 1
    outer loop
      vertex 0.9 0 2
      vertex 7.15 0 2
      vertex 0.9 5 2
    endloop
  endfacet
  facet normal -1 0 0
    outer loop
      vertex 7.15 5 3.65
      vertex 7.15 5 2
      vertex 7.15 0 3.65
    endloop
  endfacet
  facet normal -1 0 0
    outer loop
      vertex 7.15 0 3.65
      vertex 7.15 5 2
      vertex 7.15 0 2
    endloop
  endfacet
  facet normal 0 0 -1
    outer loop
      vertex 7.15 5 3.65
      vertex 7.15 0 3.65
      vertex 6 5 3.65
    endloop
  endfacet
  facet normal 0 0 -1
    outer loop
      vertex 6 5 3.65
      vertex 7.15 0 3.65
      vertex 6 0 3.65
    endloop
  endfacet
  facet normal -1 0 0
    outer loop
      vertex 6 0 3.65
      vertex 6 0 4.8
      vertex 6 5 3.65
    endloop
  endfacet
  facet normal -1 0 0
    outer loop
      vertex 6 5 3.65
      vertex 6 0 4.8
      vertex 6 5 4.8
    endloop
  endfacet
  facet normal 0 0 1
    outer loop
      vertex 6 5 4.8
      vertex 6 0 4.8
      vertex 8 0 4.8
    endloop
  endfacet
  facet normal 0 0 1
    outer loop
      vertex 8 5 4.8
      vertex 6 5 4.8
      vertex 8 0 4.8
    endloop
  endfacet
  facet normal 1 0 0
    outer loop
      vertex 8 0 4.8
      vertex 8 0 0
      vertex 8 5 0
    endloop
  endfacet
  facet normal 1 0 0
    outer loop
      vertex 8 5 4.8
      vertex 8 0 4.8
      vertex 8 5 0
    endloop
  endfacet
endsolid OpenSCAD_Model
